<?xml version="1.0" encoding="iso-8859-1"?>
<!-- Generator: Adobe Illustrator 16.0.0, SVG Export Plug-In . SVG Version: 6.00 Build 0)  -->
<!DOCTYPE svg PUBLIC "-//W3C//DTD SVG 1.1//EN" "http://www.w3.org/Graphics/SVG/1.1/DTD/svg11.dtd">
<svg version="1.1" id="Capa_1" xmlns="http://www.w3.org/2000/svg" xmlns:xlink="http://www.w3.org/1999/xlink" x="0px" y="0px"
	 width="580.672px" height="580.672px" viewBox="0 0 580.672 580.672" style="enable-background:new 0 0 580.672 580.672;"
	 xml:space="preserve" fill="#3498db">
<g>
	<g>
		<path d="M516.776,338.906c-12.369,8.658-27.396,13.756-43.605,13.756c-24.884,0-47.02-11.982-60.946-30.479
			c-13.926,18.498-36.062,30.479-60.945,30.479c-24.885,0-47.021-11.982-60.946-30.479c-13.926,18.498-36.062,30.479-60.946,30.479
			c-24.884,0-47.02-11.982-60.946-30.479c-13.926,18.498-36.062,30.479-60.946,30.479c-16.208,0-31.236-5.098-43.605-13.756v61.488
			c9.033-4.379,18.636-7.41,28.296-8.541c27.88-3.264,50.462,3.131,75.579,15.016c10.594,5.014,22.681,11.629,34.734,11.414
			c10.597-0.189,20.441-4.055,29.924-8.537c20.53-9.713,41.965-21.316,65.313-21.322c25.07-0.006,46.946,10.609,68.865,21.604
			c20.22,10.145,40.189,19.172,62.105,8.146c23.431-11.791,44.608-28.688,71.188-32.867c5.563-0.875,11.249-1.127,16.879-0.756
			v-45.645H516.776z"/>
		<path d="M476.567,443.818c-20.184,12.029-41.196,24.734-65.374,25.646c-21.76,0.82-41.658-6.998-60.842-16.475
			c-16.361-8.082-34.798-20.049-53.834-18.688c-21.022,1.502-40.307,15.93-59.677,23.117c-21.126,7.84-43.947,9.123-65.264,0.869
			c-19.52-7.555-39.832-22.24-61.436-22.037c-18.537,0.174-33.923,7.678-46.249,20.865v44.42h452.879v-70.896
			C503.637,427.797,487.657,437.209,476.567,443.818z"/>
		<path d="M518.306,317.268c0.508-0.564,1.041-1.102,1.53-1.684c8.901-10.594,14.281-24.248,14.281-39.165V174.417H314.816v-7.65
			v-7.65v-40.603c-7.222,4.535-15.566,7.169-24.48,7.169c-8.914,0-17.258-2.635-24.48-7.169v40.603v7.65v7.65H46.555v101.999
			c0,14.92,5.38,28.571,14.281,39.165c0.49,0.582,1.022,1.121,1.53,1.684c0.508,0.562,1.001,1.141,1.53,1.684
			c11.068,11.346,26.502,18.412,43.605,18.412c33.66,0,60.946-27.287,60.946-60.947c0,33.66,27.286,60.947,60.946,60.947
			c33.66,0,60.946-27.287,60.946-60.947c0,33.66,27.286,60.947,60.946,60.947s60.946-27.287,60.946-60.947
			c0,33.66,27.285,60.947,60.945,60.947c17.103,0,32.537-7.066,43.605-18.412C517.306,318.408,517.798,317.83,518.306,317.268z"/>
		<path d="M290.336,580.672c150.408,0,272.34-28.578,272.34-63.828h-42.84h-1.53h-1.529H63.896h-1.53h-1.53h-42.84
			C17.996,552.094,139.928,580.672,290.336,580.672z"/>
		<path d="M274.754,106.078c4.669,2.736,9.96,4.306,15.582,4.306s10.912-1.57,15.581-4.306
			c10.897-6.383,18.357-19.223,18.357-34.055c0-10.75-17.476-72.026-34.694-72.023c-0.024,0-0.049,0-0.073,0
			c-16.689,0.168-33.109,61.604-33.109,72.023C256.397,86.852,263.858,99.691,274.754,106.078z"/>
	</g>
</g>
<g>
</g>
<g>
</g>
<g>
</g>
<g>
</g>
<g>
</g>
<g>
</g>
<g>
</g>
<g>
</g>
<g>
</g>
<g>
</g>
<g>
</g>
<g>
</g>
<g>
</g>
<g>
</g>
<g>
</g>
</svg>
